<?xml version="1.0" encoding="utf-8" standalone="no"?><!DOCTYPE svg PUBLIC "-//W3C//DTD SVG 20010904//EN" "http://www.w3.org/TR/2001/REC-SVG-20010904/DTD/svg10.dtd"><svg xmlns="http://www.w3.org/2000/svg" width="506" height="597" xmlns:xlink="http://www.w3.org/1999/xlink"><source><![CDATA[Note right of Client: Client asks credentials
Client->API: (G) Ask for token
API->Client: (JSON) token & refresh token

Client->API: (G) Ask for resource
API->Client: (JSON ) Sends Resource

Note left of API: Token expires after 10 minutes \n Refresh token expires after three hours

Client->API: (G) Ask for resource
API->Client: 401 Response

Client->API: (G) Refresh Token
API->Client: (JSON) Token]]></source><desc></desc><defs><marker viewBox="0 0 5 5" markerWidth="5" markerHeight="5" orient="auto" refX="5" refY="2.5" id="markerArrowBlock"><path d="M 0 0 L 5 2.5 L 0 5 z"></path></marker><marker viewBox="0 0 9.6 16" markerWidth="4" markerHeight="16" orient="auto" refX="9.6" refY="8" id="markerArrowOpen"><path d="M 9.6,8 1.92,16 0,13.7 5.76,8 0,2.286 1.92,0 9.6,8 z"></path></marker></defs><g class="title"></g><g class="actor"><path d="M10,20C60.5,22.9 42.9,17.1 83.0,20.0C81.4,29.6 84.6,38.9 83.0,60.0C51.1,57.1 21.7,62.9 10.0,60.0C8.4,29.6 11.6,31.5 10.0,20.0" style="stroke-width: 2px;" stroke="#000000" fill="#ffffff"></path><text x="20" y="47" style="font-size: 16px; font-family: danielbd;"><tspan x="20">Client</tspan></text></g><g class="actor"><path d="M10,537.2000007629395C65.5,534.3 65.4,540.1 83.0,537.2C81.4,567.6 84.6,547.5 83.0,577.2C40.9,580.1 68.8,574.3 10.0,577.2C11.6,564.6 8.4,561.3 10.0,537.2" style="stroke-width: 2px;" stroke="#000000" fill="#ffffff"></path><text x="20" y="564.2000007629395" style="font-size: 16px; font-family: danielbd;"><tspan x="20">Client</tspan></text></g><path d="M46.5,60.0C27.4,376.4 65.6,232.9 46.5,537.2" style="stroke-width: 2px;" stroke="#000000" fill="none"></path><g class="actor"><path d="M428.5,20C440.0,18.1 456.8,21.9 476.5,20.0C478.1,27.0 474.9,50.5 476.5,60.0C450.5,61.9 440.0,58.1 428.5,60.0C430.1,26.4 426.9,45.3 428.5,20.0" style="stroke-width: 2px;" stroke="#000000" fill="#ffffff"></path><text x="438.5" y="47" style="font-size: 16px; font-family: danielbd;"><tspan x="438.5">API</tspan></text></g><g class="actor"><path d="M428.5,537.2000007629395C454.5,535.3 465.0,539.1 476.5,537.2C478.1,545.1 474.9,550.7 476.5,577.2C443.1,579.1 450.3,575.3 428.5,577.2C426.9,568.3 430.1,567.6 428.5,537.2" style="stroke-width: 2px;" stroke="#000000" fill="#ffffff"></path><text x="438.5" y="564.2000007629395" style="font-size: 16px; font-family: danielbd;"><tspan x="438.5">API</tspan></text></g><path d="M452.5,60.0C433.4,204.8 471.6,269.8 452.5,537.2" style="stroke-width: 2px;" stroke="#000000" fill="none"></path><g class="note"><path d="M66.5,80C157.7,71.8 134.9,88.2 271.5,80.0C270.3,87.2 272.7,84.8 271.5,110.0C222.3,118.2 238.7,101.8 66.5,110.0C67.7,91.4 65.3,102.8 66.5,80.0" style="stroke-width: 2px;" stroke="#000000" fill="#ffffff"></path><text x="71.5" y="102" style="font-size: 16px; font-family: danielbd;"><tspan x="71.5">Client asks credentials</tspan></text></g><g class="signal"><text x="169.5" y="142" style="font-size: 16px; font-family: danielbd;"><tspan x="169.5">(G) Ask for token</tspan></text><path d="M46.5,150.0C286.7,166.2 387.5,133.8 452.5,150.0" style="stroke-width: 2px; marker-end: url(&quot;#markerArrowBlock&quot;);" stroke="#000000" fill="none"></path></g><g class="signal"><text x="116.5" y="182" style="font-size: 16px; font-family: danielbd;"><tspan x="116.5">(JSON) token &amp; refresh token</tspan></text><path d="M452.5,190.0C143.9,206.2 162.7,173.8 46.5,190.0" style="stroke-width: 2px; marker-end: url(&quot;#markerArrowBlock&quot;);" stroke="#000000" fill="none"></path></g><g class="signal"><text x="156" y="222" style="font-size: 16px; font-family: danielbd;"><tspan x="156">(G) Ask for resource</tspan></text><path d="M46.5,230.0C188.0,246.2 245.6,213.8 452.5,230.0" style="stroke-width: 2px; marker-end: url(&quot;#markerArrowBlock&quot;);" stroke="#000000" fill="none"></path></g><g class="signal"><text x="143.5" y="262" style="font-size: 16px; font-family: danielbd;"><tspan x="143.5">(JSON ) Sends Resource</tspan></text><path d="M452.5,270.0C355.1,253.8 233.4,286.2 46.5,270.0" style="stroke-width: 2px; marker-end: url(&quot;#markerArrowBlock&quot;);" stroke="#000000" fill="none"></path></g><g class="note"><path d="M66.5,290C361.2,304.6 336.9,275.4 432.5,290.0C430.2,299.2 434.8,303.7 432.5,347.2C134.1,332.6 254.6,361.8 66.5,347.2C64.2,332.4 68.8,338.0 66.5,290.0" style="stroke-width: 2px;" stroke="#000000" fill="#ffffff"></path><text x="71.5" y="310" style="font-size: 16px; font-family: danielbd;"><tspan x="71.5">Token expires after 10 minutes</tspan><tspan dy="1.2em" x="71.5">Refresh token expires after three hours</tspan></text></g><g class="signal"><text x="156" y="379.20000076293945" style="font-size: 16px; font-family: danielbd;"><tspan x="156">(G) Ask for resource</tspan></text><path d="M46.5,387.2C387.5,403.4 256.1,371.0 452.5,387.2" style="stroke-width: 2px; marker-end: url(&quot;#markerArrowBlock&quot;);" stroke="#000000" fill="none"></path></g><g class="signal"><text x="192" y="414.20000076293945" style="font-size: 16px; font-family: danielbd;"><tspan x="192">401 Response</tspan></text><path d="M452.5,437.2C291.6,421.0 344.6,453.4 46.5,437.2" style="stroke-width: 2px; marker-end: url(&quot;#markerArrowBlock&quot;);" stroke="#000000" fill="none"></path></g><g class="signal"><text x="169" y="469.20000076293945" style="font-size: 16px; font-family: danielbd;"><tspan x="169">(G) Refresh Token</tspan></text><path d="M46.5,477.2C355.1,461.0 179.6,493.4 452.5,477.2" style="stroke-width: 2px; marker-end: url(&quot;#markerArrowBlock&quot;);" stroke="#000000" fill="none"></path></g><g class="signal"><text x="188.5" y="509.20000076293945" style="font-size: 16px; font-family: danielbd;"><tspan x="188.5">(JSON) Token</tspan></text><path d="M452.5,517.2C149.0,533.4 123.3,501.0 46.5,517.2" style="stroke-width: 2px; marker-end: url(&quot;#markerArrowBlock&quot;);" stroke="#000000" fill="none"></path></g></svg>